<mxfile host="app.diagrams.net" modified="2024-06-28T16:51:00.874Z" agent="Mozilla/5.0 (Windows NT 10.0; Win64; x64) AppleWebKit/537.36 (KHTML, like Gecko) Chrome/126.0.0.0 Safari/537.36 Edg/126.0.0.0" etag="wwyUfLCPxk8zRE18rUaB" version="24.6.4" type="device">
  <diagram name="PÃ¡gina-1" id="JtKqGS-qrJ52SODQhDRR">
    <mxGraphModel dx="1025" dy="1035" grid="1" gridSize="10" guides="1" tooltips="1" connect="1" arrows="1" fold="1" page="1" pageScale="1" pageWidth="827" pageHeight="1169" math="0" shadow="0">
      <root>
        <mxCell id="0" />
        <mxCell id="1" parent="0" />
        <mxCell id="RjiuRui3JPFfuvUP7JBx-4" value="" style="edgeStyle=orthogonalEdgeStyle;rounded=0;orthogonalLoop=1;jettySize=auto;html=1;" edge="1" parent="1" source="RjiuRui3JPFfuvUP7JBx-1" target="RjiuRui3JPFfuvUP7JBx-2">
          <mxGeometry relative="1" as="geometry" />
        </mxCell>
        <mxCell id="RjiuRui3JPFfuvUP7JBx-1" value="inicio" style="strokeWidth=2;html=1;shape=mxgraph.flowchart.start_1;whiteSpace=wrap;" vertex="1" parent="1">
          <mxGeometry x="363" y="10" width="100" height="60" as="geometry" />
        </mxCell>
        <mxCell id="RjiuRui3JPFfuvUP7JBx-2" value="PopulacaoA,&lt;div&gt;PopulacaoB,&lt;/div&gt;&lt;div&gt;ContadorAnos,&lt;/div&gt;&lt;div&gt;PorcentagemA,&lt;/div&gt;&lt;div&gt;PorcentagemB&lt;/div&gt;" style="shape=parallelogram;html=1;strokeWidth=2;perimeter=parallelogramPerimeter;whiteSpace=wrap;rounded=1;arcSize=12;size=0.23;" vertex="1" parent="1">
          <mxGeometry x="308" y="110" width="210" height="140" as="geometry" />
        </mxCell>
        <mxCell id="RjiuRui3JPFfuvUP7JBx-11" value="" style="edgeStyle=orthogonalEdgeStyle;rounded=0;orthogonalLoop=1;jettySize=auto;html=1;" edge="1" parent="1" source="RjiuRui3JPFfuvUP7JBx-5" target="RjiuRui3JPFfuvUP7JBx-10">
          <mxGeometry relative="1" as="geometry" />
        </mxCell>
        <mxCell id="RjiuRui3JPFfuvUP7JBx-5" value="PopulacaoA,&lt;div&gt;PopulacaoB,&lt;/div&gt;&lt;div&gt;ContadorAnos,&lt;/div&gt;&lt;div&gt;PorcentagemA,&lt;/div&gt;&lt;div&gt;PorcentagemB&lt;/div&gt;" style="html=1;strokeWidth=2;shape=manualInput;whiteSpace=wrap;rounded=1;size=26;arcSize=11;" vertex="1" parent="1">
          <mxGeometry x="328" y="320" width="170" height="170" as="geometry" />
        </mxCell>
        <mxCell id="RjiuRui3JPFfuvUP7JBx-9" style="edgeStyle=orthogonalEdgeStyle;rounded=0;orthogonalLoop=1;jettySize=auto;html=1;exitX=0.5;exitY=1;exitDx=0;exitDy=0;entryX=0.495;entryY=0.076;entryDx=0;entryDy=0;entryPerimeter=0;" edge="1" parent="1" source="RjiuRui3JPFfuvUP7JBx-2" target="RjiuRui3JPFfuvUP7JBx-5">
          <mxGeometry relative="1" as="geometry" />
        </mxCell>
        <mxCell id="RjiuRui3JPFfuvUP7JBx-21" value="" style="edgeStyle=orthogonalEdgeStyle;rounded=0;orthogonalLoop=1;jettySize=auto;html=1;" edge="1" parent="1" source="RjiuRui3JPFfuvUP7JBx-10" target="RjiuRui3JPFfuvUP7JBx-20">
          <mxGeometry relative="1" as="geometry" />
        </mxCell>
        <mxCell id="RjiuRui3JPFfuvUP7JBx-27" value="" style="edgeStyle=orthogonalEdgeStyle;rounded=0;orthogonalLoop=1;jettySize=auto;html=1;" edge="1" parent="1" source="RjiuRui3JPFfuvUP7JBx-10" target="RjiuRui3JPFfuvUP7JBx-26">
          <mxGeometry relative="1" as="geometry" />
        </mxCell>
        <mxCell id="RjiuRui3JPFfuvUP7JBx-28" value="FALSO" style="edgeLabel;html=1;align=center;verticalAlign=middle;resizable=0;points=[];" vertex="1" connectable="0" parent="RjiuRui3JPFfuvUP7JBx-27">
          <mxGeometry x="-0.1235" y="-1" relative="1" as="geometry">
            <mxPoint as="offset" />
          </mxGeometry>
        </mxCell>
        <mxCell id="RjiuRui3JPFfuvUP7JBx-10" value="PopulacaoA &amp;gt; PopulacaoB" style="strokeWidth=2;html=1;shape=mxgraph.flowchart.decision;whiteSpace=wrap;" vertex="1" parent="1">
          <mxGeometry x="363" y="550" width="100" height="100" as="geometry" />
        </mxCell>
        <mxCell id="RjiuRui3JPFfuvUP7JBx-14" value="A populacao do pais A ja e maior que a populacao B" style="strokeWidth=2;html=1;shape=mxgraph.flowchart.display;whiteSpace=wrap;" vertex="1" parent="1">
          <mxGeometry x="150" y="640" width="150" height="80" as="geometry" />
        </mxCell>
        <mxCell id="RjiuRui3JPFfuvUP7JBx-15" style="edgeStyle=orthogonalEdgeStyle;rounded=0;orthogonalLoop=1;jettySize=auto;html=1;exitX=0;exitY=0.5;exitDx=0;exitDy=0;exitPerimeter=0;entryX=0.5;entryY=0;entryDx=0;entryDy=0;entryPerimeter=0;" edge="1" parent="1" source="RjiuRui3JPFfuvUP7JBx-10" target="RjiuRui3JPFfuvUP7JBx-14">
          <mxGeometry relative="1" as="geometry" />
        </mxCell>
        <mxCell id="RjiuRui3JPFfuvUP7JBx-16" value="VERDADE" style="edgeLabel;html=1;align=center;verticalAlign=middle;resizable=0;points=[];" vertex="1" connectable="0" parent="RjiuRui3JPFfuvUP7JBx-15">
          <mxGeometry x="-0.2682" y="3" relative="1" as="geometry">
            <mxPoint as="offset" />
          </mxGeometry>
        </mxCell>
        <mxCell id="RjiuRui3JPFfuvUP7JBx-23" value="" style="edgeStyle=orthogonalEdgeStyle;rounded=0;orthogonalLoop=1;jettySize=auto;html=1;" edge="1" parent="1" source="RjiuRui3JPFfuvUP7JBx-20" target="RjiuRui3JPFfuvUP7JBx-22">
          <mxGeometry relative="1" as="geometry" />
        </mxCell>
        <mxCell id="RjiuRui3JPFfuvUP7JBx-20" value="PopulacaoA &amp;lt; PopulacaoB" style="strokeWidth=2;html=1;shape=mxgraph.flowchart.loop_limit;whiteSpace=wrap;" vertex="1" parent="1">
          <mxGeometry x="363" y="690" width="100" height="60" as="geometry" />
        </mxCell>
        <mxCell id="RjiuRui3JPFfuvUP7JBx-30" value="" style="edgeStyle=orthogonalEdgeStyle;rounded=0;orthogonalLoop=1;jettySize=auto;html=1;" edge="1" parent="1" source="RjiuRui3JPFfuvUP7JBx-22" target="RjiuRui3JPFfuvUP7JBx-29">
          <mxGeometry relative="1" as="geometry" />
        </mxCell>
        <mxCell id="RjiuRui3JPFfuvUP7JBx-22" value="&lt;div&gt;ContadorAnos++&lt;/div&gt;&lt;div&gt;&amp;nbsp; &amp;nbsp;&amp;nbsp;&lt;/div&gt;&lt;div&gt;&amp;nbsp; &amp;nbsp; &amp;nbsp; PopulacaoA = PopulacaoA + ( PopulacaoA *&amp;nbsp; PorcentagemA / 100)&lt;/div&gt;&lt;div&gt;&amp;nbsp; &amp;nbsp; &amp;nbsp; &amp;nbsp; &amp;nbsp;&amp;nbsp;&lt;/div&gt;&lt;div&gt;PopulacaoB = PopulacaoB&amp;nbsp; + ( PopulacaoB *&amp;nbsp; PorcentagemB / 100)&lt;/div&gt;&lt;div&gt;&amp;nbsp; &amp;nbsp; &amp;nbsp; &amp;nbsp; &amp;nbsp;&lt;/div&gt;&lt;div&gt;&lt;span style=&quot;background-color: initial;&quot;&gt;&amp;nbsp;&lt;/span&gt;&lt;/div&gt;" style="rounded=1;whiteSpace=wrap;html=1;absoluteArcSize=1;arcSize=14;strokeWidth=2;" vertex="1" parent="1">
          <mxGeometry x="293" y="820" width="240" height="150" as="geometry" />
        </mxCell>
        <mxCell id="RjiuRui3JPFfuvUP7JBx-24" style="edgeStyle=orthogonalEdgeStyle;rounded=0;orthogonalLoop=1;jettySize=auto;html=1;exitX=1;exitY=0.5;exitDx=0;exitDy=0;entryX=1;entryY=0.5;entryDx=0;entryDy=0;entryPerimeter=0;" edge="1" parent="1" source="RjiuRui3JPFfuvUP7JBx-22" target="RjiuRui3JPFfuvUP7JBx-20">
          <mxGeometry relative="1" as="geometry">
            <Array as="points">
              <mxPoint x="533" y="930" />
              <mxPoint x="580" y="930" />
              <mxPoint x="580" y="720" />
            </Array>
          </mxGeometry>
        </mxCell>
        <mxCell id="RjiuRui3JPFfuvUP7JBx-26" value="" style="verticalLabelPosition=bottom;verticalAlign=top;html=1;shape=mxgraph.flowchart.on-page_reference;" vertex="1" parent="1">
          <mxGeometry x="580" y="580" width="40" height="40" as="geometry" />
        </mxCell>
        <mxCell id="RjiuRui3JPFfuvUP7JBx-33" value="" style="edgeStyle=orthogonalEdgeStyle;rounded=0;orthogonalLoop=1;jettySize=auto;html=1;" edge="1" parent="1" source="RjiuRui3JPFfuvUP7JBx-29" target="RjiuRui3JPFfuvUP7JBx-31">
          <mxGeometry relative="1" as="geometry" />
        </mxCell>
        <mxCell id="RjiuRui3JPFfuvUP7JBx-29" value="A populacao do pais A passara a populcao do pais B em X anos" style="strokeWidth=2;html=1;shape=mxgraph.flowchart.display;whiteSpace=wrap;" vertex="1" parent="1">
          <mxGeometry x="318" y="1040" width="190" height="110" as="geometry" />
        </mxCell>
        <mxCell id="RjiuRui3JPFfuvUP7JBx-31" value="fim" style="strokeWidth=2;html=1;shape=mxgraph.flowchart.start_1;whiteSpace=wrap;" vertex="1" parent="1">
          <mxGeometry x="363" y="1210" width="100" height="60" as="geometry" />
        </mxCell>
        <mxCell id="RjiuRui3JPFfuvUP7JBx-32" style="edgeStyle=orthogonalEdgeStyle;rounded=0;orthogonalLoop=1;jettySize=auto;html=1;exitX=1;exitY=0.5;exitDx=0;exitDy=0;exitPerimeter=0;entryX=1;entryY=0.5;entryDx=0;entryDy=0;entryPerimeter=0;" edge="1" parent="1" source="RjiuRui3JPFfuvUP7JBx-26" target="RjiuRui3JPFfuvUP7JBx-31">
          <mxGeometry relative="1" as="geometry">
            <Array as="points">
              <mxPoint x="650" y="600" />
              <mxPoint x="650" y="1240" />
            </Array>
          </mxGeometry>
        </mxCell>
      </root>
    </mxGraphModel>
  </diagram>
</mxfile>
